<svg width="60" height="60" viewBox="0 0 60 60" fill="none" xmlns="http://www.w3.org/2000/svg" xmlns:xlink="http://www.w3.org/1999/xlink">
<path d="M0,12C0,5.373 5.373,0 12,0L48,0C54.627,0 60,5.373 60,12L60,48C60,54.627 54.627,60 48,60L12,60C5.373,60 0,54.627 0,48L0,12Z" clip-rule="evenodd" fill-rule="evenodd" fill="#FFFFFF" stroke="#E4E4E4" stroke-width="1" stroke-miterlimit="3.999327"/>
<path d="M22,39.333C22,40.8 23.2,42 24.667,42L35.333,42C36.8,42 38,40.8 38,39.333L38,23.333L22,23.333L22,39.333L22,39.333ZM39.333,19.333L34.667,19.333L33.333,18L26.667,18L25.333,19.333L20.667,19.333L20.667,22L39.333,22L39.333,19.333L39.333,19.333Z" clip-rule="evenodd" fill-rule="evenodd" fill="#969696"/>
</svg>
