<svg width="28" height="24" viewBox="0 0 28 24" fill="none" xmlns="http://www.w3.org/2000/svg" xmlns:xlink="http://www.w3.org/1999/xlink">
<path d="M7.56,2.667L10,0L18,0L20.44,2.667L24.667,2.667C26.133,2.667 27.333,3.867 27.333,5.333L27.333,21.333C27.333,22.8 26.133,24 24.667,24L3.333,24C1.867,24 0.667,22.8 0.667,21.333L0.667,5.333C0.667,3.867 1.867,2.667 3.333,2.667L7.56,2.667ZM7.333,13.333C7.333,17.013 10.32,20 14,20C17.68,20 20.667,17.013 20.667,13.333C20.667,9.653 17.68,6.667 14,6.667C10.32,6.667 7.333,9.653 7.333,13.333ZM14,17.6C16.356,17.6 18.267,15.69 18.267,13.333C18.267,10.977 16.356,9.067 14,9.067C11.644,9.067 9.733,10.977 9.733,13.333C9.733,15.69 11.644,17.6 14,17.6Z" clip-rule="evenodd" fill-rule="evenodd" fill="#969696"/>
</svg>
